<svg width="44" height="44" viewBox="0 0 44 44" fill="none" xmlns="http://www.w3.org/2000/svg">
<rect width="44" height="44" fill="#1E1E1E"/>
<g id="Desktop" clip-path="url(#clip0_1_697)">
<rect width="1366" height="6368" transform="translate(-100 -680)" fill="white"/>
<rect id="BG Hero Gradient" x="-100" y="-680" width="1366" height="890" fill="url(#paint0_linear_1_697)"/>
<path id="Vector 1" d="M1336.77 -277.036C1273.63 -277.036 1210.38 -285.735 1154.43 -250.877C1119.6 -229.179 1097.04 -195.349 1077.49 -160.091C1052.83 -115.615 1036 -64.056 997.321 -30.8358C958.641 2.38432 910.801 22.45 863.449 33.1761C806.067 46.1743 751.686 8.0424 712.96 -30.5281C665.365 -77.9306 631.892 -142.277 631.098 -210.562C630.834 -233.249 648.139 -258.34 672.337 -261.187C714.14 -266.105 720.238 -141.085 721.269 -116.698C722.622 -84.6708 724.484 -50.1067 714.498 -19.1414C693.692 45.3747 594 68.5 578.849 72.0298C563.697 75.5595 460.5 102 360.5 118.5C260.5 135 144.971 125.47 45.2102 157.892C-5.36338 174.328 -58.2334 204.945 -90.9692 247.601C-116.069 280.306 -116.037 309.918 -119.436 349.005" stroke="url(#paint1_linear_1_697)" stroke-width="4" stroke-linecap="round" stroke-dasharray="12 12"/>
<g id="Group 10">
<g id="ri:amazon-fill" opacity="0.7">
<path id="Vector" d="M39.1111 32.5409C39.1111 33.8026 38.418 36.2321 36.8607 37.5666C36.5493 37.8095 36.2378 37.6725 36.3747 37.3184C36.8282 36.1939 37.8653 33.5926 37.3793 32.9939C37.0353 32.5392 35.6149 32.5739 34.4032 32.678C33.8505 32.7492 33.3645 32.7821 32.988 32.8602C32.6388 32.888 32.5687 32.5774 32.9178 32.3344C33.3724 32.0089 33.8749 31.7583 34.4067 31.5917C36.3747 30.9947 38.6491 31.3539 38.9759 31.7357C39.0375 31.8086 39.1111 32.0151 39.1111 32.5409ZM35.8219 34.7848C35.3706 35.1347 34.8966 35.4536 34.4032 35.7392C30.7718 37.9518 26.0673 39.1111 21.9823 39.1111C15.4056 39.1111 9.52376 36.6521 5.06058 32.5375C4.67724 32.2216 4.99384 31.7635 5.44221 32.0116C10.2511 34.8577 16.2031 36.5792 22.364 36.5792C26.2419 36.5792 30.4209 35.8434 34.4032 34.2607C34.6822 34.1548 34.9937 34.0108 35.2658 33.9101C35.8938 33.6238 36.4466 34.3301 35.8219 34.7848ZM25.263 15.6435C25.263 13.837 25.3348 12.7732 24.7444 11.8604C24.2208 11.109 23.3189 10.6578 22.0593 10.7289C20.6937 10.8053 19.2271 11.7129 18.854 13.3771C18.7804 13.7589 18.5614 14.1337 18.1061 14.2153L13.939 13.6773C13.6412 13.6079 13.1877 13.3771 13.3366 12.7732C14.2317 7.99918 18.255 6.33495 22.061 6.11108H22.9544C25.0422 6.11108 27.7256 6.71673 29.4421 8.30461C31.5248 10.276 31.3023 12.9242 31.3023 15.8014V22.6163C31.3023 24.6606 32.1203 25.5664 32.9418 26.632C33.1642 27.012 33.2412 27.4597 32.8665 27.7686C31.7883 28.7434 30.6946 29.7003 29.5858 30.639C29.2863 30.8698 28.749 30.8941 28.5419 30.717C27.2242 29.5977 26.9024 28.9765 26.0861 27.8398C24.6657 29.3513 23.4729 30.186 22.0542 30.639C21.0565 30.8957 20.0305 31.0217 19.0012 31.0138C15.4245 31.0138 12.5922 28.7526 12.5922 24.2805C12.5922 20.7247 14.4576 18.3073 17.2128 17.1637C19.9681 16.0184 23.9726 15.6539 25.263 15.647M24.4467 24.6571C25.3366 23.1438 25.263 21.9048 25.263 19.1299C24.1472 19.1299 23.028 19.208 22.061 19.4388C20.2727 19.9646 18.8523 21.1048 18.8523 23.5256C18.8523 25.4172 19.8243 26.7048 21.4638 26.7048C21.6897 26.7048 21.8882 26.6771 22.0593 26.6268C23.2059 26.304 23.9213 25.7209 24.4467 24.6571Z" fill="black"/>
</g>
</g>
</g>
<defs>
<linearGradient id="paint0_linear_1_697" x1="-100" y1="-680" x2="328.426" y2="159.244" gradientUnits="userSpaceOnUse">
<stop stop-color="#F2FAFF"/>
<stop offset="0.882698" stop-color="white"/>
</linearGradient>
<linearGradient id="paint1_linear_1_697" x1="-119" y1="248" x2="1288" y2="-278" gradientUnits="userSpaceOnUse">
<stop stop-color="#00A3F4" stop-opacity="0.42"/>
<stop offset="0.563099" stop-color="#00A4F4" stop-opacity="0.11"/>
<stop offset="0.887261" stop-color="#00A4F4" stop-opacity="0.6"/>
</linearGradient>
<clipPath id="clip0_1_697">
<rect width="1366" height="6368" fill="white" transform="translate(-100 -680)"/>
</clipPath>
</defs>
</svg>
