<svg width="45" height="44" viewBox="0 0 45 44" fill="none" xmlns="http://www.w3.org/2000/svg">
<rect width="45" height="44" fill="#1E1E1E"/>
<g id="Desktop" clip-path="url(#clip0_1_697)">
<rect width="1366" height="6368" transform="translate(-305 -680)" fill="white"/>
<rect id="BG Hero Gradient" x="-305" y="-680" width="1366" height="890" fill="url(#paint0_linear_1_697)"/>
<path id="Vector 1" d="M1131.77 -277.036C1068.63 -277.036 1005.38 -285.735 949.427 -250.877C914.596 -229.179 892.042 -195.349 872.489 -160.091C847.826 -115.615 831 -64.056 792.321 -30.8358C753.641 2.38432 705.801 22.45 658.449 33.1761C601.067 46.1743 546.686 8.0424 507.96 -30.5281C460.365 -77.9306 426.892 -142.277 426.098 -210.562C425.834 -233.249 443.139 -258.34 467.337 -261.187C509.14 -266.105 515.238 -141.085 516.269 -116.698C517.622 -84.6708 519.484 -50.1067 509.498 -19.1414C488.692 45.3747 389 68.5 373.849 72.0298C358.697 75.5595 255.5 102 155.5 118.5C55.5 135 -60.0285 125.47 -159.79 157.892C-210.363 174.328 -263.233 204.945 -295.969 247.601C-321.069 280.306 -321.037 309.918 -324.436 349.005" stroke="url(#paint1_linear_1_697)" stroke-width="4" stroke-linecap="round" stroke-dasharray="12 12"/>
<g id="Group 10">
<g id="cib:notion" opacity="0.7">
<path id="Vector" d="M10.3279 10.0941C11.5103 11.0187 11.9582 10.9534 14.1906 10.8102L35.2358 9.59912C35.6837 9.59912 35.311 9.16946 35.1605 9.09727L31.6645 6.67397C30.9993 6.17212 30.1035 5.60611 28.3919 5.74246L8.01913 7.17467C7.27264 7.23998 7.12334 7.59861 7.42194 7.88505L10.3279 10.0941ZM11.5904 14.8032V36.0412C11.5904 37.1813 12.1816 37.6109 13.5193 37.5387L36.6487 36.2555C37.9865 36.1833 38.1417 35.4019 38.1417 34.4715V13.3767C38.1417 12.4452 37.7679 11.9502 36.9473 12.0224L12.78 13.3767C11.8842 13.4489 11.5916 13.8717 11.5916 14.7975L11.5904 14.8032ZM34.4212 15.9364C34.5705 16.5814 34.4212 17.2196 33.7487 17.2976L32.6356 17.513V33.1894C31.6645 33.6912 30.7759 33.9777 30.0354 33.9777C28.841 33.9777 28.5424 33.6191 27.6526 32.5512L20.362 21.5713V32.1937L22.6696 32.6956C22.6696 32.6956 22.6696 33.9788 20.8099 33.9788L15.6776 34.2653C15.5283 33.9788 15.6776 33.2627 16.2007 33.1252L17.5384 32.7666V18.7252L15.6788 18.582C15.5295 17.9369 15.9033 17.0123 16.9412 16.9412L22.4462 16.5826L30.0354 27.7057V17.8647L28.1005 17.6493C27.9512 16.8679 28.5424 16.295 29.2889 16.2286L34.4212 15.9364ZM6.30876 5.24863L27.5033 3.75111C30.1035 3.5357 30.7759 3.67892 32.411 4.81897L39.1796 9.38372C40.2928 10.1651 40.6667 10.3805 40.6667 11.2341V36.2566C40.6667 37.8263 40.0695 38.751 37.9912 38.8942L13.3688 40.3207C11.8137 40.3929 11.0672 40.1775 10.2455 39.1806L5.26247 32.974C4.37265 31.834 4 30.9804 4 29.9847V7.74412C4 6.46086 4.5972 5.393 6.30757 5.24978L6.30876 5.24863Z" fill="black"/>
</g>
</g>
</g>
<defs>
<linearGradient id="paint0_linear_1_697" x1="-305" y1="-680" x2="123.426" y2="159.244" gradientUnits="userSpaceOnUse">
<stop stop-color="#F2FAFF"/>
<stop offset="0.882698" stop-color="white"/>
</linearGradient>
<linearGradient id="paint1_linear_1_697" x1="-324" y1="248" x2="1083" y2="-278" gradientUnits="userSpaceOnUse">
<stop stop-color="#00A3F4" stop-opacity="0.42"/>
<stop offset="0.563099" stop-color="#00A4F4" stop-opacity="0.11"/>
<stop offset="0.887261" stop-color="#00A4F4" stop-opacity="0.6"/>
</linearGradient>
<clipPath id="clip0_1_697">
<rect width="1366" height="6368" fill="white" transform="translate(-305 -680)"/>
</clipPath>
</defs>
</svg>
