<svg width="20" height="20" viewBox="0 0 20 20" fill="none" xmlns="http://www.w3.org/2000/svg">
<rect width="20" height="20" fill="#1E1E1E"/>
<g id="Desktop" clip-path="url(#clip0_1_697)">
<rect width="1366" height="6368" transform="translate(-1173 -988)" fill="white"/>
<path id="Vector 1" d="M263.769 -585.036C200.63 -585.036 137.382 -593.735 81.4268 -558.877C46.5955 -537.179 24.0417 -503.349 4.48926 -468.091C-20.1744 -423.615 -37 -372.056 -75.6794 -338.836C-114.359 -305.616 -162.199 -285.55 -209.551 -274.824C-266.933 -261.826 -321.314 -299.958 -360.04 -338.528C-407.635 -385.931 -441.108 -450.277 -441.902 -518.562C-442.166 -541.249 -424.861 -566.34 -400.663 -569.187C-358.86 -574.105 -352.762 -449.085 -351.731 -424.698C-350.378 -392.671 -348.516 -358.107 -358.502 -327.141C-379.308 -262.625 -479 -239.5 -494.151 -235.97C-509.303 -232.44 -612.5 -206 -712.5 -189.5C-812.5 -173 -928.029 -182.53 -1027.79 -150.108C-1078.36 -133.672 -1131.23 -103.055 -1163.97 -60.3989C-1189.07 -27.6936 -1189.04 1.91846 -1192.44 41.0047" stroke="url(#paint0_linear_1_697)" stroke-width="4" stroke-linecap="round" stroke-dasharray="12 12"/>
<g id="Frame 10" filter="url(#filter0_d_1_697)">
<rect x="-1073" y="-188" width="1166" height="280" rx="28" fill="url(#paint1_radial_1_697)"/>
<rect x="-1072" y="-187" width="1164" height="278" rx="27" stroke="url(#paint2_linear_1_697)" stroke-width="2"/>
<g id="Frame 2" filter="url(#filter1_d_1_697)">
<rect x="-142" y="-20" width="195" height="60" rx="12" fill="#00A4F4" shape-rendering="crispEdges"/>
<g id="Group">
<path id="Vector" d="M10 20C11.3135 20.0017 12.6143 19.7438 13.8278 19.2411C15.0413 18.7385 16.1435 18.001 17.071 17.071C18.001 16.1435 18.7385 15.0413 19.2411 13.8278C19.7438 12.6143 20.0017 11.3135 20 10C20.0017 8.68654 19.7438 7.38569 19.2411 6.17222C18.7385 4.95874 18.001 3.85656 17.071 2.92901C16.1435 1.99902 15.0413 1.26151 13.8278 0.75885C12.6143 0.256194 11.3135 -0.00169347 10 8.36827e-06C8.68654 -0.00166607 7.38569 0.256234 6.17222 0.758889C4.95874 1.26154 3.85656 1.99904 2.92901 2.92901C1.99904 3.85656 1.26154 4.95874 0.758889 6.17222C0.256234 7.38569 -0.00166607 8.68654 8.36827e-06 10C-0.00169347 11.3135 0.256194 12.6143 0.75885 13.8278C1.26151 15.0413 1.99902 16.1435 2.92901 17.071C3.85656 18.001 4.95874 18.7385 6.17222 19.2411C7.38569 19.7438 8.68654 20.0017 10 20Z" fill="white"/>
<path id="Vector_2" d="M6 10L9 13L15 7" stroke="#00A4F4" stroke-width="2" stroke-linecap="round" stroke-linejoin="round"/>
</g>
</g>
</g>
</g>
<defs>
<filter id="filter0_d_1_697" x="-1091.73" y="-200.488" width="1209.71" height="323.707" filterUnits="userSpaceOnUse" color-interpolation-filters="sRGB">
<feFlood flood-opacity="0" result="BackgroundImageFix"/>
<feColorMatrix in="SourceAlpha" type="matrix" values="0 0 0 0 0 0 0 0 0 0 0 0 0 0 0 0 0 0 127 0" result="hardAlpha"/>
<feOffset dx="3.12195" dy="9.36585"/>
<feGaussianBlur stdDeviation="10.9268"/>
<feComposite in2="hardAlpha" operator="out"/>
<feColorMatrix type="matrix" values="0 0 0 0 0 0 0 0 0 0 0 0 0 0 0 0 0 0 0.06 0"/>
<feBlend mode="normal" in2="BackgroundImageFix" result="effect1_dropShadow_1_697"/>
<feBlend mode="normal" in="SourceGraphic" in2="effect1_dropShadow_1_697" result="shape"/>
</filter>
<filter id="filter1_d_1_697" x="-178" y="-40" width="251" height="116" filterUnits="userSpaceOnUse" color-interpolation-filters="sRGB">
<feFlood flood-opacity="0" result="BackgroundImageFix"/>
<feColorMatrix in="SourceAlpha" type="matrix" values="0 0 0 0 0 0 0 0 0 0 0 0 0 0 0 0 0 0 127 0" result="hardAlpha"/>
<feOffset dx="-8" dy="8"/>
<feGaussianBlur stdDeviation="14"/>
<feComposite in2="hardAlpha" operator="out"/>
<feColorMatrix type="matrix" values="0 0 0 0 0 0 0 0 0 0 0 0 0 0 0 0 0 0 0.06 0"/>
<feBlend mode="normal" in2="BackgroundImageFix" result="effect1_dropShadow_1_697"/>
<feBlend mode="normal" in="SourceGraphic" in2="effect1_dropShadow_1_697" result="shape"/>
</filter>
<linearGradient id="paint0_linear_1_697" x1="-1192" y1="-60.0001" x2="215" y2="-586" gradientUnits="userSpaceOnUse">
<stop stop-color="#00A3F4" stop-opacity="0.42"/>
<stop offset="0.563099" stop-color="#00A4F4" stop-opacity="0.11"/>
<stop offset="0.887261" stop-color="#00A4F4" stop-opacity="0.6"/>
</linearGradient>
<radialGradient id="paint1_radial_1_697" cx="0" cy="0" r="1" gradientUnits="userSpaceOnUse" gradientTransform="translate(-595.5 -217.254) rotate(45.6325) scale(432.602 1179.47)">
<stop offset="0.328088" stop-color="white"/>
<stop offset="0.976391" stop-color="#F8FDFF"/>
</radialGradient>
<linearGradient id="paint2_linear_1_697" x1="-1073" y1="-161.75" x2="-53.5585" y2="309.654" gradientUnits="userSpaceOnUse">
<stop stop-color="#C5ECFF"/>
<stop offset="1" stop-color="#95DDFF"/>
</linearGradient>
<clipPath id="clip0_1_697">
<rect width="1366" height="6368" fill="white" transform="translate(-1173 -988)"/>
</clipPath>
</defs>
</svg>
