<svg width="45" height="44" viewBox="0 0 45 44" fill="none" xmlns="http://www.w3.org/2000/svg">
<rect width="45" height="44" fill="#1E1E1E"/>
<g id="Desktop" clip-path="url(#clip0_1_697)">
<rect width="1366" height="6368" transform="translate(-168 -680)" fill="white"/>
<rect id="BG Hero Gradient" x="-168" y="-680" width="1366" height="890" fill="url(#paint0_linear_1_697)"/>
<path id="Vector 1" d="M1268.77 -277.036C1205.63 -277.036 1142.38 -285.735 1086.43 -250.877C1051.6 -229.179 1029.04 -195.349 1009.49 -160.091C984.826 -115.615 968 -64.056 929.321 -30.8358C890.641 2.38432 842.801 22.45 795.449 33.1761C738.067 46.1743 683.686 8.0424 644.96 -30.5281C597.365 -77.9306 563.892 -142.277 563.098 -210.562C562.834 -233.249 580.139 -258.34 604.337 -261.187C646.14 -266.105 652.238 -141.085 653.269 -116.698C654.622 -84.6708 656.484 -50.1067 646.498 -19.1414C625.692 45.3747 526 68.5 510.849 72.0298C495.697 75.5595 392.5 102 292.5 118.5C192.5 135 76.9715 125.47 -22.7898 157.892C-73.3634 174.328 -126.233 204.945 -158.969 247.601C-184.069 280.306 -184.037 309.918 -187.436 349.005" stroke="url(#paint1_linear_1_697)" stroke-width="4" stroke-linecap="round" stroke-dasharray="12 12"/>
<g id="Group 10">
<g id="ic:baseline-apple" opacity="0.7">
<path id="Vector" d="M33.0325 38.8623C30.9793 40.7973 28.7374 40.4917 26.5794 39.5752C24.2956 38.6383 22.2005 38.5975 19.791 39.5752C16.7739 40.838 15.1816 40.4714 13.3797 38.8623C3.15526 28.6173 4.66379 13.0156 16.2711 12.4453C19.0996 12.5878 21.0691 13.9525 22.7243 14.0747C25.1966 13.5859 27.5641 12.1805 30.204 12.3638C33.3678 12.6082 35.7563 13.8303 37.3277 16.03C30.7907 19.8388 32.3411 28.2099 38.3333 30.5522C37.1391 33.6074 35.5887 36.6422 33.0116 38.8827L33.0325 38.8623ZM22.5147 12.3231C22.2005 7.78104 25.9927 4.03337 30.3507 3.66675C30.9583 8.92164 25.448 12.8323 22.5147 12.3231Z" fill="black"/>
</g>
</g>
</g>
<defs>
<linearGradient id="paint0_linear_1_697" x1="-168" y1="-680" x2="260.426" y2="159.244" gradientUnits="userSpaceOnUse">
<stop stop-color="#F2FAFF"/>
<stop offset="0.882698" stop-color="white"/>
</linearGradient>
<linearGradient id="paint1_linear_1_697" x1="-187" y1="248" x2="1220" y2="-278" gradientUnits="userSpaceOnUse">
<stop stop-color="#00A3F4" stop-opacity="0.42"/>
<stop offset="0.563099" stop-color="#00A4F4" stop-opacity="0.11"/>
<stop offset="0.887261" stop-color="#00A4F4" stop-opacity="0.6"/>
</linearGradient>
<clipPath id="clip0_1_697">
<rect width="1366" height="6368" fill="white" transform="translate(-168 -680)"/>
</clipPath>
</defs>
</svg>
