<svg width="32" height="32" viewBox="0 0 32 32" fill="none" xmlns="http://www.w3.org/2000/svg">
<rect width="32" height="32" fill="#1E1E1E"/>
<g id="Desktop" clip-path="url(#clip0_1_697)">
<rect width="1366" height="6368" transform="translate(-140 -920)" fill="white"/>
<path id="Vector 1" d="M1296.77 -517.036C1233.63 -517.036 1170.38 -525.735 1114.43 -490.877C1079.6 -469.179 1057.04 -435.349 1037.49 -400.091C1012.83 -355.615 996 -304.056 957.321 -270.836C918.641 -237.616 870.801 -217.55 823.449 -206.824C766.067 -193.826 711.686 -231.958 672.96 -270.528C625.365 -317.931 591.892 -382.277 591.098 -450.562C590.834 -473.249 608.139 -498.34 632.337 -501.187C674.14 -506.105 680.238 -381.085 681.269 -356.698C682.622 -324.671 684.484 -290.107 674.498 -259.141C653.692 -194.625 554 -171.5 538.849 -167.97C523.697 -164.44 420.5 -138 320.5 -121.5C220.5 -105 104.971 -114.53 5.21017 -82.108C-45.3634 -65.6716 -98.2334 -35.0546 -130.969 7.60107C-156.069 40.3064 -156.037 69.9185 -159.436 109.005" stroke="url(#paint0_linear_1_697)" stroke-width="4" stroke-linecap="round" stroke-dasharray="12 12"/>
<g id="Frame 10" filter="url(#filter0_d_1_697)">
<rect x="-40" y="-120" width="1166" height="280" rx="28" fill="url(#paint1_radial_1_697)"/>
<rect x="-39" y="-119" width="1164" height="278" rx="27" stroke="url(#paint2_linear_1_697)" stroke-width="2"/>
<g id="Frame 14">
<g id="ic:round-email">
<path id="Vector" d="M26.6667 5.33325H5.33335C3.86669 5.33325 2.68002 6.53325 2.68002 7.99992L2.66669 23.9999C2.66669 25.4666 3.86669 26.6666 5.33335 26.6666H26.6667C28.1334 26.6666 29.3334 25.4666 29.3334 23.9999V7.99992C29.3334 6.53325 28.1334 5.33325 26.6667 5.33325ZM26.1334 10.9999L16.7067 16.8933C16.28 17.1599 15.72 17.1599 15.2934 16.8933L5.86669 10.9999C5.73299 10.9249 5.61591 10.8235 5.52254 10.7019C5.42916 10.5802 5.36144 10.441 5.32345 10.2924C5.28547 10.1439 5.27802 9.98917 5.30156 9.83766C5.3251 9.68616 5.37914 9.541 5.4604 9.41099C5.54166 9.28097 5.64845 9.16879 5.77432 9.08125C5.90019 8.9937 6.04252 8.9326 6.19268 8.90165C6.34285 8.8707 6.49773 8.87054 6.64796 8.90118C6.79819 8.93182 6.94064 8.99263 7.06669 9.07992L16 14.6666L24.9334 9.07992C25.0594 8.99263 25.2019 8.93182 25.3521 8.90118C25.5023 8.87054 25.6572 8.8707 25.8074 8.90165C25.9575 8.9326 26.0998 8.9937 26.2257 9.08125C26.3516 9.16879 26.4584 9.28097 26.5396 9.41099C26.6209 9.541 26.6749 9.68616 26.6985 9.83766C26.722 9.98917 26.7146 10.1439 26.6766 10.2924C26.6386 10.441 26.5709 10.5802 26.4775 10.7019C26.3841 10.8235 26.267 10.9249 26.1334 10.9999Z" fill="#00A4F4"/>
</g>
</g>
</g>
</g>
<defs>
<filter id="filter0_d_1_697" x="-58.7317" y="-132.488" width="1209.71" height="323.707" filterUnits="userSpaceOnUse" color-interpolation-filters="sRGB">
<feFlood flood-opacity="0" result="BackgroundImageFix"/>
<feColorMatrix in="SourceAlpha" type="matrix" values="0 0 0 0 0 0 0 0 0 0 0 0 0 0 0 0 0 0 127 0" result="hardAlpha"/>
<feOffset dx="3.12195" dy="9.36585"/>
<feGaussianBlur stdDeviation="10.9268"/>
<feComposite in2="hardAlpha" operator="out"/>
<feColorMatrix type="matrix" values="0 0 0 0 0 0 0 0 0 0 0 0 0 0 0 0 0 0 0.06 0"/>
<feBlend mode="normal" in2="BackgroundImageFix" result="effect1_dropShadow_1_697"/>
<feBlend mode="normal" in="SourceGraphic" in2="effect1_dropShadow_1_697" result="shape"/>
</filter>
<linearGradient id="paint0_linear_1_697" x1="-159" y1="7.99995" x2="1248" y2="-518" gradientUnits="userSpaceOnUse">
<stop stop-color="#00A3F4" stop-opacity="0.42"/>
<stop offset="0.563099" stop-color="#00A4F4" stop-opacity="0.11"/>
<stop offset="0.887261" stop-color="#00A4F4" stop-opacity="0.6"/>
</linearGradient>
<radialGradient id="paint1_radial_1_697" cx="0" cy="0" r="1" gradientUnits="userSpaceOnUse" gradientTransform="translate(437.5 -149.254) rotate(45.6325) scale(432.602 1179.47)">
<stop offset="0.328088" stop-color="white"/>
<stop offset="0.976391" stop-color="#F8FDFF"/>
</radialGradient>
<linearGradient id="paint2_linear_1_697" x1="-40" y1="-93.75" x2="979.441" y2="377.654" gradientUnits="userSpaceOnUse">
<stop stop-color="#C5ECFF"/>
<stop offset="1" stop-color="#95DDFF"/>
</linearGradient>
<clipPath id="clip0_1_697">
<rect width="1366" height="6368" fill="white" transform="translate(-140 -920)"/>
</clipPath>
</defs>
</svg>
