<svg width="45" height="44" viewBox="0 0 45 44" fill="none" xmlns="http://www.w3.org/2000/svg">
<rect width="45" height="44" fill="#1E1E1E"/>
<g id="Desktop" clip-path="url(#clip0_1_697)">
<rect width="1366" height="6368" transform="translate(-373 -680)" fill="white"/>
<rect id="BG Hero Gradient" x="-373" y="-680" width="1366" height="890" fill="url(#paint0_linear_1_697)"/>
<path id="Vector 1" d="M1063.77 -277.036C1000.63 -277.036 937.382 -285.735 881.427 -250.877C846.596 -229.179 824.042 -195.349 804.489 -160.091C779.826 -115.615 763 -64.056 724.321 -30.8358C685.641 2.38432 637.801 22.45 590.449 33.1761C533.067 46.1743 478.686 8.0424 439.96 -30.5281C392.365 -77.9306 358.892 -142.277 358.098 -210.562C357.834 -233.249 375.139 -258.34 399.337 -261.187C441.14 -266.105 447.238 -141.085 448.269 -116.698C449.622 -84.6708 451.484 -50.1067 441.498 -19.1414C420.692 45.3747 321 68.5 305.849 72.0298C290.697 75.5595 187.5 102 87.5 118.5C-12.5 135 -128.029 125.47 -227.79 157.892C-278.363 174.328 -331.233 204.945 -363.969 247.601C-389.069 280.306 -389.037 309.918 -392.436 349.005" stroke="url(#paint1_linear_1_697)" stroke-width="4" stroke-linecap="round" stroke-dasharray="12 12"/>
<g id="Group 10">
<g id="mdi:spotify" opacity="0.7">
<path id="Vector" d="M33.5945 19.9834C27.7278 16.5001 17.9195 16.1334 12.3278 17.8751C11.4111 18.1501 10.4945 17.6001 10.2195 16.7751C9.94446 15.8584 10.4945 14.9417 11.3195 14.6667C17.8278 12.7417 28.5528 13.1084 35.3361 17.1417C36.1611 17.6001 36.4361 18.7001 35.9778 19.5251C35.5195 20.1667 34.4195 20.4417 33.5945 19.9834ZM33.4111 25.1167C32.9528 25.7584 32.1278 26.0334 31.4861 25.5751C26.5361 22.5501 19.0195 21.6334 13.2445 23.4667C12.5111 23.6501 11.6861 23.2834 11.5028 22.5501C11.3195 21.8167 11.6861 20.9917 12.4195 20.8084C19.1111 18.7917 27.3611 19.8001 33.0445 23.2834C33.5945 23.5584 33.8695 24.4751 33.4111 25.1167ZM31.2111 30.1584C30.8445 30.7084 30.2028 30.8917 29.6528 30.5251C25.3445 27.8667 19.9361 27.3167 13.5195 28.7834C12.8778 28.9667 12.3278 28.5084 12.1445 27.9584C11.9611 27.3167 12.4195 26.7667 12.9695 26.5834C19.9361 25.0251 25.9861 25.6667 30.7528 28.6001C31.3945 28.8751 31.4861 29.6084 31.2111 30.1584ZM22.7778 3.66675C20.3702 3.66675 17.9862 4.14095 15.7619 5.06229C13.5376 5.98363 11.5166 7.33405 9.81417 9.03646C6.376 12.4746 4.44446 17.1378 4.44446 22.0001C4.44446 26.8624 6.376 31.5255 9.81417 34.9637C11.5166 36.6661 13.5376 38.0165 15.7619 38.9379C17.9862 39.8592 20.3702 40.3334 22.7778 40.3334C27.6401 40.3334 32.3032 38.4019 35.7414 34.9637C39.1796 31.5255 41.1111 26.8624 41.1111 22.0001C41.1111 19.5925 40.6369 17.2085 39.7156 14.9842C38.7943 12.7599 37.4438 10.7389 35.7414 9.03646C34.039 7.33405 32.018 5.98363 29.7937 5.06229C27.5694 4.14095 25.1854 3.66675 22.7778 3.66675Z" fill="black"/>
</g>
</g>
</g>
<defs>
<linearGradient id="paint0_linear_1_697" x1="-373" y1="-680" x2="55.426" y2="159.244" gradientUnits="userSpaceOnUse">
<stop stop-color="#F2FAFF"/>
<stop offset="0.882698" stop-color="white"/>
</linearGradient>
<linearGradient id="paint1_linear_1_697" x1="-392" y1="248" x2="1015" y2="-278" gradientUnits="userSpaceOnUse">
<stop stop-color="#00A3F4" stop-opacity="0.42"/>
<stop offset="0.563099" stop-color="#00A4F4" stop-opacity="0.11"/>
<stop offset="0.887261" stop-color="#00A4F4" stop-opacity="0.6"/>
</linearGradient>
<clipPath id="clip0_1_697">
<rect width="1366" height="6368" fill="white" transform="translate(-373 -680)"/>
</clipPath>
</defs>
</svg>
