<svg width="45" height="44" viewBox="0 0 45 44" fill="none" xmlns="http://www.w3.org/2000/svg">
<rect width="45" height="44" fill="#1E1E1E"/>
<g id="Desktop" clip-path="url(#clip0_1_697)">
<rect width="1366" height="6368" transform="translate(-442 -680)" fill="white"/>
<rect id="BG Hero Gradient" x="-442" y="-680" width="1366" height="890" fill="url(#paint0_linear_1_697)"/>
<path id="Vector 1" d="M994.769 -277.036C931.63 -277.036 868.382 -285.735 812.427 -250.877C777.596 -229.179 755.042 -195.349 735.489 -160.091C710.826 -115.615 694 -64.056 655.321 -30.8358C616.641 2.38432 568.801 22.45 521.449 33.1761C464.067 46.1743 409.686 8.0424 370.96 -30.5281C323.365 -77.9306 289.892 -142.277 289.098 -210.562C288.834 -233.249 306.139 -258.34 330.337 -261.187C372.14 -266.105 378.238 -141.085 379.269 -116.698C380.622 -84.6708 382.484 -50.1067 372.498 -19.1414C351.692 45.3747 252 68.5 236.849 72.0298C221.697 75.5595 118.5 102 18.5 118.5C-81.5 135 -197.029 125.47 -296.79 157.892C-347.363 174.328 -400.233 204.945 -432.969 247.601C-458.069 280.306 -458.037 309.918 -461.436 349.005" stroke="url(#paint1_linear_1_697)" stroke-width="4" stroke-linecap="round" stroke-dasharray="12 12"/>
<g id="Group 10">
<g id="mdi:slack" opacity="0.7">
<path id="Vector" d="M11.6082 26.8246C11.6082 27.8483 11.2015 28.83 10.4777 29.5538C9.75389 30.2777 8.77218 30.6843 7.74853 30.6843C6.72489 30.6843 5.74318 30.2777 5.01935 29.5538C4.29553 28.83 3.88889 27.8483 3.88889 26.8246C3.88889 25.801 4.29553 24.8193 5.01935 24.0955C5.74318 23.3716 6.72489 22.965 7.74853 22.965H11.6082V26.8246ZM13.538 26.8246C13.538 25.801 13.9446 24.8193 14.6685 24.0955C15.3923 23.3716 16.374 22.965 17.3977 22.965C18.4213 22.965 19.403 23.3716 20.1268 24.0955C20.8507 24.8193 21.2573 25.801 21.2573 26.8246V36.4738C21.2573 37.4974 20.8507 38.4791 20.1268 39.2029C19.403 39.9268 18.4213 40.3334 17.3977 40.3334C16.374 40.3334 15.3923 39.9268 14.6685 39.2029C13.9446 38.4791 13.538 37.4974 13.538 36.4738V26.8246ZM17.3977 11.386C16.374 11.386 15.3923 10.9794 14.6685 10.2556C13.9446 9.53176 13.538 8.55004 13.538 7.5264C13.538 6.50275 13.9446 5.52104 14.6685 4.79721C15.3923 4.07339 16.374 3.66675 17.3977 3.66675C18.4213 3.66675 19.403 4.07339 20.1268 4.79721C20.8507 5.52104 21.2573 6.50275 21.2573 7.5264V11.386H17.3977ZM17.3977 13.3159C18.4213 13.3159 19.403 13.7225 20.1268 14.4463C20.8507 15.1702 21.2573 16.1519 21.2573 17.1755C21.2573 18.1992 20.8507 19.1809 20.1268 19.9047C19.403 20.6285 18.4213 21.0352 17.3977 21.0352H7.74853C6.72489 21.0352 5.74318 20.6285 5.01935 19.9047C4.29553 19.1809 3.88889 18.1992 3.88889 17.1755C3.88889 16.1519 4.29553 15.1702 5.01935 14.4463C5.74318 13.7225 6.72489 13.3159 7.74853 13.3159H17.3977ZM32.8363 17.1755C32.8363 16.1519 33.2429 15.1702 33.9667 14.4463C34.6905 13.7225 35.6723 13.3159 36.6959 13.3159C37.7195 13.3159 38.7013 13.7225 39.4251 14.4463C40.1489 15.1702 40.5556 16.1519 40.5556 17.1755C40.5556 18.1992 40.1489 19.1809 39.4251 19.9047C38.7013 20.6285 37.7195 21.0352 36.6959 21.0352H32.8363V17.1755ZM30.9064 17.1755C30.9064 18.1992 30.4998 19.1809 29.776 19.9047C29.0521 20.6285 28.0704 21.0352 27.0468 21.0352C26.0231 21.0352 25.0414 20.6285 24.3176 19.9047C23.5938 19.1809 23.1871 18.1992 23.1871 17.1755V7.5264C23.1871 6.50275 23.5938 5.52104 24.3176 4.79721C25.0414 4.07339 26.0231 3.66675 27.0468 3.66675C28.0704 3.66675 29.0521 4.07339 29.776 4.79721C30.4998 5.52104 30.9064 6.50275 30.9064 7.5264V17.1755ZM27.0468 32.6141C28.0704 32.6141 29.0521 33.0208 29.776 33.7446C30.4998 34.4684 30.9064 35.4501 30.9064 36.4738C30.9064 37.4974 30.4998 38.4791 29.776 39.2029C29.0521 39.9268 28.0704 40.3334 27.0468 40.3334C26.0231 40.3334 25.0414 39.9268 24.3176 39.2029C23.5938 38.4791 23.1871 37.4974 23.1871 36.4738V32.6141H27.0468ZM27.0468 30.6843C26.0231 30.6843 25.0414 30.2777 24.3176 29.5538C23.5938 28.83 23.1871 27.8483 23.1871 26.8246C23.1871 25.801 23.5938 24.8193 24.3176 24.0955C25.0414 23.3716 26.0231 22.965 27.0468 22.965H36.6959C37.7195 22.965 38.7013 23.3716 39.4251 24.0955C40.1489 24.8193 40.5556 25.801 40.5556 26.8246C40.5556 27.8483 40.1489 28.83 39.4251 29.5538C38.7013 30.2777 37.7195 30.6843 36.6959 30.6843H27.0468Z" fill="black"/>
</g>
</g>
</g>
<defs>
<linearGradient id="paint0_linear_1_697" x1="-442" y1="-680" x2="-13.574" y2="159.244" gradientUnits="userSpaceOnUse">
<stop stop-color="#F2FAFF"/>
<stop offset="0.882698" stop-color="white"/>
</linearGradient>
<linearGradient id="paint1_linear_1_697" x1="-461" y1="248" x2="946" y2="-278" gradientUnits="userSpaceOnUse">
<stop stop-color="#00A3F4" stop-opacity="0.42"/>
<stop offset="0.563099" stop-color="#00A4F4" stop-opacity="0.11"/>
<stop offset="0.887261" stop-color="#00A4F4" stop-opacity="0.6"/>
</linearGradient>
<clipPath id="clip0_1_697">
<rect width="1366" height="6368" fill="white" transform="translate(-442 -680)"/>
</clipPath>
</defs>
</svg>
