<svg width="45" height="44" viewBox="0 0 45 44" fill="none" xmlns="http://www.w3.org/2000/svg">
<rect width="45" height="44" fill="#1E1E1E"/>
<g id="Desktop" clip-path="url(#clip0_1_697)">
<rect width="1366" height="6368" transform="translate(-236 -680)" fill="white"/>
<rect id="BG Hero Gradient" x="-236" y="-680" width="1366" height="890" fill="url(#paint0_linear_1_697)"/>
<path id="Vector 1" d="M1200.77 -277.036C1137.63 -277.036 1074.38 -285.735 1018.43 -250.877C983.596 -229.179 961.042 -195.349 941.489 -160.091C916.826 -115.615 900 -64.056 861.321 -30.8358C822.641 2.38432 774.801 22.45 727.449 33.1761C670.067 46.1743 615.686 8.0424 576.96 -30.5281C529.365 -77.9306 495.892 -142.277 495.098 -210.562C494.834 -233.249 512.139 -258.34 536.337 -261.187C578.14 -266.105 584.238 -141.085 585.269 -116.698C586.622 -84.6708 588.484 -50.1067 578.498 -19.1414C557.692 45.3747 458 68.5 442.849 72.0298C427.697 75.5595 324.5 102 224.5 118.5C124.5 135 8.97147 125.47 -90.7898 157.892C-141.363 174.328 -194.233 204.945 -226.969 247.601C-252.069 280.306 -252.037 309.918 -255.436 349.005" stroke="url(#paint1_linear_1_697)" stroke-width="4" stroke-linecap="round" stroke-dasharray="12 12"/>
<g id="Group 10">
<g id="uim:google" opacity="0.8">
<g id="Group 9">
<path id="Vector" opacity="0.7" d="M23.2959 10.9579C25.9021 10.9142 28.4204 11.8996 30.3047 13.7005L35.5627 8.44255C32.2444 5.32547 27.8483 3.61394 23.2959 3.66671C19.8967 3.6653 16.5641 4.60933 13.6706 6.39326C10.7772 8.17719 8.4369 10.7307 6.91141 13.7684L13.0366 18.5167C13.741 16.3419 15.1098 14.4428 16.9502 13.0869C18.7907 11.7309 21.0101 10.9863 23.2959 10.9579Z" fill="black"/>
<path id="Vector_2" d="M6.91139 13.7686C5.62972 16.3233 4.96231 19.142 4.96231 22.0002C4.96231 24.8584 5.62972 27.6772 6.91139 30.2319L13.0366 25.4836C12.27 23.2246 12.27 20.7759 13.0366 18.5169L6.91139 13.7686Z" fill="black"/>
<path id="Vector_3" opacity="0.5" d="M29.5036 31.2914C28.0862 32.2013 26.4797 32.7754 24.8066 32.97C23.1336 33.1646 21.4382 32.9745 19.8498 32.4143C18.2614 31.854 16.8219 30.9384 15.6411 29.7373C14.4604 28.5361 13.5695 27.0812 13.0366 25.4834L6.91324 30.2317C8.43845 33.2688 10.7782 35.822 13.6709 37.6059C16.5637 39.3898 19.8955 40.3341 23.2941 40.3334C27.7569 40.4543 32.0973 38.8652 35.4271 35.8912L29.5036 31.2914Z" fill="black"/>
<path id="Vector_4" opacity="0.25" d="M40.5622 18.667H23.2959V25.7583H33.1629C32.9587 26.8801 32.5291 27.9487 31.9001 28.8997C31.2711 29.8507 30.4559 30.6643 29.5036 31.2913L35.4289 35.893C37.2333 34.1552 38.6523 32.0577 39.5941 29.7364C40.5359 27.415 40.9794 24.9217 40.8959 22.418C40.8959 21.1585 40.7859 19.9045 40.5622 18.667Z" fill="black"/>
</g>
</g>
</g>
</g>
<defs>
<linearGradient id="paint0_linear_1_697" x1="-236" y1="-680" x2="192.426" y2="159.244" gradientUnits="userSpaceOnUse">
<stop stop-color="#F2FAFF"/>
<stop offset="0.882698" stop-color="white"/>
</linearGradient>
<linearGradient id="paint1_linear_1_697" x1="-255" y1="248" x2="1152" y2="-278" gradientUnits="userSpaceOnUse">
<stop stop-color="#00A3F4" stop-opacity="0.42"/>
<stop offset="0.563099" stop-color="#00A4F4" stop-opacity="0.11"/>
<stop offset="0.887261" stop-color="#00A4F4" stop-opacity="0.6"/>
</linearGradient>
<clipPath id="clip0_1_697">
<rect width="1366" height="6368" fill="white" transform="translate(-236 -680)"/>
</clipPath>
</defs>
</svg>
