<svg width="20" height="20" viewBox="0 0 20 20" fill="none" xmlns="http://www.w3.org/2000/svg">
<path id="Vector" d="M20 10C20 8.02219 19.4135 6.08879 18.3147 4.4443C17.2159 2.79981 15.6541 1.51808 13.8268 0.761209C11.9996 0.00433246 9.98891 -0.193701 8.0491 0.192151C6.10929 0.578003 4.32746 1.53041 2.92893 2.92894C1.53041 4.32746 0.578003 6.10929 0.19215 8.0491C-0.193703 9.98891 0.00433106 11.9996 0.761207 13.8268C1.51808 15.6541 2.79981 17.2159 4.4443 18.3147C6.08879 19.4135 8.02219 20 10 20C12.6522 20 15.1957 18.9464 17.0711 17.0711C18.9464 15.1957 20 12.6522 20 10ZM10.2688 15C10.1054 14.833 10.0139 14.6086 10.0139 14.375C10.0139 14.1414 10.1054 13.917 10.2688 13.75L13.125 10.875L4.2875 10.875C4.05544 10.875 3.83288 10.7828 3.66878 10.6187C3.50469 10.4546 3.4125 10.2321 3.4125 10C3.4125 9.76794 3.50469 9.54538 3.66878 9.38128C3.83288 9.21719 4.05544 9.125 4.2875 9.125L13.0375 9.125L10.2688 6.35625C10.103 6.19049 10.0099 5.96567 10.0099 5.73125C10.0099 5.49683 10.103 5.27201 10.2688 5.10625C10.4345 4.94049 10.6593 4.84737 10.8938 4.84737C11.1282 4.84737 11.353 4.94049 11.5188 5.10625L15.7353 9.34424C16.1236 9.73453 16.1234 10.3653 15.7349 10.7553L11.5063 15C11.425 15.0813 11.3285 15.1457 11.2224 15.1897C11.1162 15.2337 11.0024 15.2563 10.8875 15.2563C10.7726 15.2563 10.6588 15.2337 10.5526 15.1897C10.4465 15.1457 10.35 15.0813 10.2688 15Z" fill="white"/>
</svg>
